<svg width="225" height="271" viewBox="0 0 225 271" fill="none" xmlns="http://www.w3.org/2000/svg">
<path fill-rule="evenodd" clip-rule="evenodd" d="M57.7716 200.992L51.0389 186.966C48.0233 180.683 49.4208 173.172 54.4939 168.394L81.4967 142.964C89.3943 135.527 102.248 137.939 106.912 147.733L146.057 229.937C149.671 237.528 146.794 246.621 139.472 250.752L108.864 268.018C100.805 272.564 90.582 269.347 86.5782 261.006L68.4135 223.163L95.6225 181.265C98.7808 176.401 97.3986 169.898 92.5352 166.74C87.6717 163.582 81.1688 164.964 78.0104 169.827L57.7716 200.992Z" fill="#4893FF"/>
<path fill-rule="evenodd" clip-rule="evenodd" d="M1.77907 91.5955C-2.26695 83.7397 0.821522 74.0913 8.67737 70.0453L134.1 5.44842C158.158 -6.94254 187.707 2.51592 200.098 26.5745L219.136 63.5398C231.527 87.5984 222.068 117.146 198.01 129.537L94.6411 182.776L95.6225 181.265C98.7808 176.401 97.3986 169.898 92.5351 166.74C87.6717 163.582 81.1687 164.964 78.0104 169.827L57.9671 200.691L47.0926 179.577L72.6224 140.265C75.7808 135.401 74.3986 128.898 69.5351 125.74C64.6717 122.582 58.1687 123.964 55.0103 128.827L36.0176 158.074L23.0867 132.967L45.6225 98.2647C48.7808 93.4013 47.3986 86.8983 42.5351 83.74C37.6717 80.5816 31.1687 81.9639 28.0104 86.8273L12.0116 111.463L1.77907 91.5955ZM123.453 118.021C137.813 118.021 149.453 106.381 149.453 92.0213C149.453 77.6619 137.813 66.0213 123.453 66.0213C109.094 66.0213 97.4531 77.6619 97.4531 92.0213C97.4531 106.381 109.094 118.021 123.453 118.021Z" fill="#0179FE"/>
</svg>
